<?xml version="1.0" encoding="UTF-8"?>
<svg id="Layer_2" data-name="Layer 2" xmlns="http://www.w3.org/2000/svg" xmlns:xlink="http://www.w3.org/1999/xlink" viewBox="0 0 1312.67 736.23">
  <defs>
    <style>
      .cls-1 {
        fill: url(#linear-gradient);
      }

      .cls-1, .cls-2, .cls-3, .cls-4 {
        stroke-width: 0px;
      }

      .cls-2 {
        fill: url(#linear-gradient-2);
      }

      .cls-3 {
        fill: url(#linear-gradient-3);
      }

      .cls-4 {
        fill: #1e1e1e;
      }
    </style>
    <linearGradient id="linear-gradient" x1="235.25" y1="571.16" x2="669.15" y2="137.26" gradientUnits="userSpaceOnUse">
      <stop offset="0" stop-color="#714b1e"/>
      <stop offset=".06" stop-color="#875e23"/>
      <stop offset=".13" stop-color="#996e28"/>
      <stop offset=".2" stop-color="#a5782b"/>
      <stop offset=".28" stop-color="#a97c2c"/>
      <stop offset=".53" stop-color="#e2a625"/>
      <stop offset=".8" stop-color="#a97c2c"/>
      <stop offset="1" stop-color="#483417"/>
    </linearGradient>
    <linearGradient id="linear-gradient-2" x1="832.09" y1="453.96" x2="1107.17" y2="178.87" xlink:href="#linear-gradient"/>
    <linearGradient id="linear-gradient-3" x1="715.18" y1="308.3" x2="770.86" y2="252.61" xlink:href="#linear-gradient"/>
  </defs>
  <g id="Layer_1-2" data-name="Layer 1">
    <g>
      <path class="cls-1" d="M454.62,493.22l136.08-180.08,12.54-16.59c25.17-33.53,37.37-73.19,37.37-112.07,0-7.1-.41-14.11-1.23-21.02C628.76,71.84,549.72,0,456.13,0c-100.63,0-184.48,83.09-184.48,184.48h99.09c0-47.27,37.37-84.6,85.39-84.6s85.39,37.34,85.39,84.6c0,18.29-5.34,36.61-16.78,51.86l-268.3,355.95-.03.03h383.73v-99.09h-185.52Z"/>
      <path class="cls-4" d="M812.74,124.42v62.85h-70.59c-50.88,0-92.27,41.39-92.27,92.24s40.76,91.58,91.05,92.24c.41,0,.82.03,1.23.03h70.59v62.82h-99.97c-35.61,0-64.55,28.94-64.55,64.52l.06,93.15h-8.14v.03h-54.71v-.03l-.06-93.15c0-1.98.03-3.96.16-5.91.85-19.2,6.03-37.3,14.52-53.4,9.37-17.73,22.78-33,39.03-44.53-23.88-21.28-41.2-49.81-48.37-82.15-2.42-10.81-3.68-22.09-3.68-33.63,0-46.14,20.27-87.65,52.36-116.06,18.51-16.41,40.92-28.44,65.68-34.54l-18.04-40.86c-10.15,1.95-20.71-3.3-25.11-13.17-5.12-11.53.06-25.02,11.6-30.11,11.5-5.12,24.98.06,30.11,11.6,4.4,9.9,1.19,21.24-7.13,27.47l18.92,42.87c8.71-1.51,17.63-2.29,26.74-2.29h70.59Z"/>
      <path class="cls-2" d="M1063.4,235.52v88c0,11.19-9.15,20.33-20.33,20.33h-16.03c-9.02,19.71-22.06,37.21-38.06,51.45,32.46,23.1,53.71,61.03,53.71,103.84v93.15h-62.85v-93.15c0-35.58-28.94-64.52-64.52-64.52h-102.58v-62.82h73.16c.41,0,.79-.03,1.19-.03h.35c50.16-.85,90.73-41.89,90.73-92.24s-41.39-92.27-92.27-92.27h-73.16v-62.85h73.16c62.57,0,116.66,37.27,141.14,90.79h7.1l13.26-85.99c.06-.44.19-.85.28-1.23.69-2.2,2.2-3.68,3.71-3.43,3.77.57,6.51,5.72,8.11,12.29,1.6,6.51,2.07,14.43,1.35,20.49l-5.53,62.01c4.9,3.71,8.08,9.59,8.08,16.19Z"/>
      <circle class="cls-3" cx="743.02" cy="280.46" r="39.38"/>
      <circle class="cls-4" cx="883.52" cy="280.46" r="39.38"/>
      <path d="M41.36,679.14c1.32-1.76,1.98-3.85,1.98-6.16,0-5.61-4.4-10.01-10.12-10.01s-10.12,4.29-10.12,10.01H4.4c0-15.84,13.09-28.82,28.82-28.82s28.82,13.09,28.82,28.82c0,6.27-1.98,12.43-5.83,17.49l-18.81,24.86h25.19v18.7H0l41.36-54.89ZM128.7,721.93h-31.46l-5.06,12.1h-21.12l41.91-91.3,41.91,91.3h-21.12l-5.06-12.1ZM121.77,705.43l-8.8-21.12-8.8,21.12h17.6ZM175.22,644.93v57.64c0,7.81,6.05,13.86,13.86,13.86s13.86-6.05,13.86-13.86v-57.64h18.7v57.64c0,18.04-14.52,32.56-32.56,32.56s-32.56-14.52-32.56-32.56v-57.64h18.7ZM253.54,663.63h-21.78v-18.7h62.15v18.7h-21.67v70.4h-18.7v-70.4ZM295.66,689.48c0-25.3,20.46-45.65,45.65-45.65s45.65,20.46,45.65,45.65-20.46,45.65-45.65,45.65-45.65-20.46-45.65-45.65ZM368.26,689.48c0-14.96-11.99-26.95-26.95-26.95s-26.95,11.99-26.95,26.95,11.99,26.95,26.95,26.95,26.95-11.99,26.95-26.95ZM401.04,642.73l42.46,53.02,42.46-53.02v91.3h-18.59v-38.83l-23.87,30.69-23.76-30.69v38.83h-18.7v-91.3ZM552.72,721.93h-31.46l-5.06,12.1h-21.12l41.91-91.3,41.91,91.3h-21.12l-5.06-12.1ZM545.79,705.43l-8.8-21.12-8.8,21.12h17.6ZM593.97,663.63h-21.78v-18.7h62.15v18.7h-21.67v70.4h-18.7v-70.4ZM645.55,644.93h57.2v18.7h-38.5v16.5h34.1v18.7h-34.1v16.5h38.5v18.7h-57.2v-89.1ZM770.07,721.93h-31.46l-5.06,12.1h-21.12l41.91-91.3,41.91,91.3h-21.12l-5.06-12.1ZM763.14,705.43l-8.8-21.12-8.8,21.12h17.6ZM824.07,686.51v47.52h-18.7v-91.3l50.93,49.94v-47.74h18.7v91.3l-50.93-49.72ZM911.08,692.01l-27.72-47.08h22.88l14.19,27.83,14.3-27.83h22.77l-27.72,47.08v42.02h-18.7v-42.02ZM981.7,663.63h-21.78v-18.7h62.15v18.7h-21.67v70.4h-18.7v-70.4ZM1033.28,644.93h18.7v35.2h26.51v-35.2h18.7v89.1h-18.7v-35.2h-26.51v35.2h-18.7v-89.1ZM1114.13,644.93h18.7v89.1h-18.7v-89.1ZM1168.46,686.51v47.52h-18.7v-91.3l50.93,49.94v-47.74h18.7v91.3l-50.93-49.72ZM1233.47,689.48c0-25.3,20.46-45.65,45.98-45.65,12.54,0,24.09,5.06,33.22,14.52l-13.31,13.31c-5.39-5.83-12.1-8.91-19.91-8.91-15.18,0-27.06,11.77-27.06,26.73s11.88,26.73,26.95,26.73c5.5,0,10.56-1.54,14.96-4.51v-12.87h-17.16v-18.7h34.87v42.24c-9.46,8.14-20.35,12.76-32.45,12.76-25.63,0-46.09-20.35-46.09-45.65Z"/>
    </g>
  </g>
</svg>